# xmcd
#
# Track frame offsets:
#	150
#	14469
#	27530
#	35913
#	65453
#	70151
#	77445
#	85544
#	89274
#	96198
#	106807
#	122238
#	132755
#	148730
#	161466
#	167904
#	178068
#	183067
#	195745
#	214483
#	227202
#	232366
#	261630
#	269907
#
# Disc length: 3698 seconds
#
# Revision: 1
# Processed by: cddbd v1.4PL0 Copyright (c) Steve Scherf et al.
# Submitted via: MusicWizard 6.0.2
#
DISCID=670e7018
DTITLE=Shel Silverstein - Shel Silverstein (2/2)
DYEAR=2002
DGENRE=Country
TTITLE0=I Got Stoned And I Missed It
TTITLE1=I Saw Polly In A Porny
TTITLE2=Ickle Me, Pickle Me, Tickle Me Too
TTITLE3=Marijuana
TTITLE4=My Hobby
TTITLE5=My Masochistic Baby
TTITLE6=Never Bite A Married Woman On The Thigh
TTITLE7=One Sister For Sale
TTITLE8=Paranoid
TTITLE9=Pathetic Way Of Getting Over Me
TTITLE10=Peanut Butter Sandwich
TTITLE11=Put Another Log On The Fire
TTITLE12=Qualludes Again
TTITLE13=Sahra Cynthia Sylvia Stout Would Not Take The Garbage Out
TTITLE14=Sick
TTITLE15=Somebody Stole My Rig
TTITLE16=Someone Ate The Baby
TTITLE17=Stacy Brown Got Two
TTITLE18=Sure Hit Songwriter's Pen
TTITLE19=Take Me Out To The Ballgame (& Carly Simon)
TTITLE20=The Farmer And The Queen
TTITLE21=The Smoke Off
TTITLE22=They Won't Let Us Show It At The Beach
TTITLE23=With His Mouth Full Of Food
EXTD=ft
EXTT0=
EXTT1=
EXTT2=
EXTT3=
EXTT4=
EXTT5=
EXTT6=
EXTT7=
EXTT8=
EXTT9=
EXTT10=
EXTT11=
EXTT12=
EXTT13=
EXTT14=
EXTT15=
EXTT16=
EXTT17=
EXTT18=
EXTT19=
EXTT20=
EXTT21=
EXTT22=
EXTT23=
PLAYORDER=
